<svg id="Capa_1" enable-background="new 0 0 512 512" height="512" viewBox="0 0 512 512" width="512" xmlns="http://www.w3.org/2000/svg"><g><path d="m179.497 451.96h-22.34c-5.522 0-10 4.478-10 10s4.478 10 10 10h22.34c5.522 0 10-4.478 10-10s-4.477-10-10-10z"/><path d="m322.464 49.426c-3.228 0-6.434.093-9.616.276-.682-27.523-23.283-49.702-50.965-49.702h-187.112c-28.11 0-50.98 22.87-50.98 50.981v410.037c0 28.111 22.87 50.981 50.98 50.981h187.111c28.11 0 50.98-22.87 50.98-50.981v-80.38c3.19.184 6.392.277 9.601.277 91.393 0 165.745-74.353 165.745-165.745.001-91.392-74.352-165.744-165.744-165.744zm-60.581 442.574h-187.112c-17.083 0-30.98-13.898-30.98-30.981v-27.662h249.072v27.662c0 17.083-13.897 30.981-30.98 30.981zm30.98-78.644h-249.072v-362.375c0-17.083 13.897-30.981 30.98-30.981h187.111c17.083 0 30.98 13.898 30.98 30.981v1.092c-77.317 13.997-136.142 81.806-136.142 163.097 0 41.193 14.994 80.225 42.369 110.684l-11.204 23.12c-1.584 3.269-1.271 7.138.815 10.109 2.088 2.971 5.619 4.566 9.232 4.197l41.877-4.417c16.467 9.488 34.421 16.029 53.054 19.399zm29.601-52.441c-26.594 0-52.613-7.228-75.247-20.902-1.565-.945-3.354-1.44-5.171-1.44-.349 0-.699.019-1.049.055l-27.268 2.876 6.354-13.11c1.839-3.795 1.1-8.336-1.848-11.352-26.771-27.387-41.516-63.565-41.516-101.871 0-80.363 65.381-145.744 145.744-145.744 80.364 0 145.745 65.381 145.745 145.744.001 80.363-65.38 145.744-145.744 145.744z"/><path d="m366.316 156.979c-1.003 0-2.002.04-2.995.121-8.519-14.062-24.029-23.051-40.857-23.051s-32.338 8.989-40.856 23.051c-.993-.081-1.992-.121-2.995-.121-20.14 0-36.524 16.343-36.524 36.432 0 15.96 10.343 29.556 24.693 34.471l3.143 40.921c.4 5.211 4.745 9.234 9.971 9.234h85.138c5.226 0 9.57-4.023 9.971-9.233l3.147-40.923c14.348-4.916 24.689-18.51 24.689-34.469-.001-20.09-16.386-36.433-36.525-36.433zm-77.159 101.058-2.239-29.147c4.53-1.055 8.816-2.964 12.626-5.623 6.984 3.813 14.885 5.858 22.92 5.858 8.036 0 15.937-2.045 22.921-5.858 3.811 2.659 8.098 4.569 12.629 5.624l-2.242 29.146zm77.159-48.193c-4.808 0-9.369-2.078-12.516-5.702-1.974-2.273-4.755-3.444-7.556-3.444-2.219 0-4.449.734-6.301 2.238-4.984 4.05-11.029 6.19-17.48 6.19-6.45 0-12.495-2.141-17.479-6.19-4.188-3.402-10.321-2.868-13.856 1.206-3.146 3.624-7.708 5.702-12.516 5.702-9.111 0-16.524-7.372-16.524-16.433s7.413-16.432 16.524-16.432c1.839 0 3.642.296 5.357.88 5.106 1.735 10.674-.893 12.577-5.941 4.027-10.688 14.442-17.868 25.917-17.868s21.891 7.181 25.918 17.868c1.902 5.049 7.465 7.68 12.577 5.941 1.716-.584 3.519-.88 5.357-.88 9.111 0 16.523 7.371 16.523 16.432s-7.41 16.433-16.522 16.433z"/></g></svg>